{
  "asset": {
    "generator": "gltfeditor.com",
    "version": "2.0"
  },
  "buffers": [
    {
      "uri": "data:application/octet-stream;base64,",
      "byteLength": 1800
    }
  ],
  "bufferViews": [
    {
      "buffer": 0,
      "byteOffset": 0,
      "byteLength": 480,
      "byteStride": 20,
      "target": 34962
    },
    {
      "buffer": 0,
      "byteOffset": 480,
      "byteLength": 144,
      "target": 34963
    },
    {
      "buffer": 0,
      "byteOffset": 624,
      "byteLength": 480,
      "byteStride": 20,
      "target": 34962
    },
    {
      "buffer": 0,
      "byteOffset": 1104,
      "byteLength": 144,
      "target": 34963
    },
    {
      "buffer": 0,
      "byteOffset": 1248,
      "byteLength": 480,
      "byteStride": 20,
      "target": 34962
    },
    {
      "buffer": 0,
      "byteOffset": 1728,
      "byteLength": 72,
      "target": 34963
    }
  ],
  "accessors": [
    {
      "bufferView": 0,
      "byteOffset": 0,
      "componentType": 5126,
      "normalized": false,
      "count": 24,
      "min": [
        -2.4000000953674316,
        0,
        -1.2000000476837158
      ],
      "max": [
        2.4000000953674316,
        2,
        1.2000000476837158
      ],
      "type": "VEC3"
    },
    {
      "bufferView": 0,
      "byteOffset": 12,
      "componentType": 5126,
      "normalized": false,
      "count": 24,
      "min": [
        0,
        0
      ],
      "max": [
        1,
        1
      ],
      "type": "VEC2"
    },
    {
      "bufferView": 1,
      "byteOffset": 0,
      "componentType": 5125,
      "normalized": false,
      "count": 36,
      "min": [
        0
      ],
      "max": [
        23
      ],
      "type": "SCALAR"
    },
    {
      "bufferView": 2,
      "byteOffset": 0,
      "componentType": 5126,
      "normalized": false,
      "count": 24,
      "min": [
        -2.4000000953674316,
        1.9799998998641968,
        -1.1999999284744263
      ],
      "max": [
        2.4000000953674316,
        2.179999828338623,
        1.600000023841858
      ],
      "type": "VEC3"
    },
    {
      "bufferView": 2,
      "byteOffset": 12,
      "componentType": 5126,
      "normalized": false,
      "count": 24,
      "min": [
        0,
        0
      ],
      "max": [
        1,
        1
      ],
      "type": "VEC2"
    },
    {
      "bufferView": 3,
      "byteOffset": 0,
      "componentType": 5125,
      "normalized": false,
      "count": 36,
      "min": [
        0
      ],
      "max": [
        23
      ],
      "type": "SCALAR"
    },
    {
      "bufferView": 4,
      "byteOffset": 0,
      "componentType": 5126,
      "normalized": false,
      "count": 24,
      "min": [
        -1,
        -1,
        -1
      ],
      "max": [
        1,
        1,
        1
      ],
      "type": "VEC3"
    },
    {
      "bufferView": 4,
      "byteOffset": 12,
      "componentType": 5126,
      "normalized": false,
      "count": 24,
      "min": [
        0,
        0
      ],
      "max": [
        1,
        1
      ],
      "type": "VEC2"
    },
    {
      "bufferView": 5,
      "byteOffset": 0,
      "componentType": 5123,
      "normalized": false,
      "count": 36,
      "min": [
        0
      ],
      "max": [
        23
      ],
      "type": "SCALAR"
    }
  ],
  "scene": 0,
  "scenes": [
    {
      "nodes": [
        0,
        1,
        2,
        3,
        4,
        5
      ],
      "name": "countertop"
    }
  ],
  "nodes": [
    {
      "matrix": [
        1.1579999923706055,
        0,
        0,
        0,
        0,
        1,
        0,
        0,
        0,
        0,
        1,
        0,
        0,
        0,
        0,
        1
      ],
      "mesh": 0
    },
    {
      "matrix": [
        1.159999966621399,
        0,
        0,
        0,
        0,
        1,
        0,
        0,
        0,
        0,
        1,
        0,
        0,
        0,
        0,
        1
      ],
      "mesh": 1
    },
    {
      "name": "Cube",
      "matrix": [
        0.10000000149011612,
        0,
        0,
        0,
        0,
        2.4000000953674316,
        0,
        0,
        0,
        0,
        3,
        0,
        2.9000000953674316,
        2.4000000953674316,
        1,
        1
      ],
      "mesh": 2
    },
    {
      "name": "Cube",
      "matrix": [
        0.10000000149011612,
        0,
        0,
        0,
        0,
        2.4000000953674316,
        0,
        0,
        0,
        0,
        3,
        0,
        -2.9000000953674316,
        2.4000000953674316,
        1,
        1
      ],
      "mesh": 3
    },
    {
      "name": "Cube",
      "matrix": [
        3.4228542222791702e-9,
        0,
        -0.10000000149011612,
        0,
        0,
        2.4000000953674316,
        0,
        0,
        3,
        0,
        1.0268562533610748e-7,
        0,
        0,
        2.4000000953674316,
        -1.2999999523162842,
        1
      ],
      "mesh": 4
    },
    {
      "name": "Cube",
      "matrix": [
        -2.9467629725221656e-11,
        0.10000000149011612,
        0,
        0,
        -0.000102996826171875,
        -8.840288501232862e-10,
        3,
        0,
        3,
        0,
        0.00010299593850504607,
        0,
        0,
        0,
        1,
        1
      ],
      "mesh": 5
    }
  ],
  "meshes": [
    {
      "primitives": [
        {
          "material": 0,
          "mode": 4,
          "attributes": {
            "POSITION": 0,
            "TEXCOORD_0": 1
          },
          "indices": 2
        }
      ]
    },
    {
      "primitives": [
        {
          "material": 1,
          "mode": 4,
          "attributes": {
            "POSITION": 3,
            "TEXCOORD_0": 4
          },
          "indices": 5
        }
      ]
    },
    {
      "primitives": [
        {
          "material": 2,
          "mode": 4,
          "attributes": {
            "POSITION": 6,
            "TEXCOORD_0": 7
          },
          "indices": 8
        }
      ]
    },
    {
      "primitives": [
        {
          "material": 3,
          "mode": 4,
          "attributes": {
            "POSITION": 6,
            "TEXCOORD_0": 7
          },
          "indices": 8
        }
      ]
    },
    {
      "primitives": [
        {
          "material": 4,
          "mode": 4,
          "attributes": {
            "POSITION": 6,
            "TEXCOORD_0": 7
          },
          "indices": 8
        }
      ]
    },
    {
      "primitives": [
        {
          "material": 5,
          "mode": 4,
          "attributes": {
            "POSITION": 6,
            "TEXCOORD_0": 7
          },
          "indices": 8
        }
      ]
    }
  ],
  "materials": [
    {
      "name": "",
      "pbrMetallicRoughness": {
        "baseColorFactor": [
          0.16862745098039217,
          0.16862745098039217,
          0.16862745098039217,
          0.37999999999999945
        ],
        "metallicFactor": 0,
        "roughnessFactor": 0.5,
        "baseColorTexture": {
          "index": 0,
          "texCoord": 0
        }
      },
      "emissiveFactor": [
        0,
        0,
        0
      ],
      "alphaMode": "OPAQUE",
      "doubleSided": false
    },
    {
      "name": "",
      "pbrMetallicRoughness": {
        "baseColorFactor": [
          0.5098039215686274,
          0.4196078431372549,
          0.2784313725490196,
          1
        ],
        "metallicFactor": 0,
        "roughnessFactor": 0.5,
        "baseColorTexture": {
          "index": 1,
          "texCoord": 0
        }
      },
      "emissiveFactor": [
        0,
        0,
        0
      ],
      "alphaMode": "OPAQUE",
      "doubleSided": false
    },
    {
      "name": "",
      "pbrMetallicRoughness": {
        "baseColorFactor": [
          0.29411764705882354,
          0.37254901960784315,
          0.5803921568627451,
          1
        ],
        "metallicFactor": 0,
        "roughnessFactor": 0.5,
        "baseColorTexture": {
          "index": 2,
          "texCoord": 0
        }
      },
      "emissiveFactor": [
        0,
        0,
        0
      ],
      "alphaMode": "OPAQUE",
      "doubleSided": false
    },
    {
      "name": "",
      "pbrMetallicRoughness": {
        "baseColorFactor": [
          0.29411764705882354,
          0.37254901960784315,
          0.5803921568627451,
          1
        ],
        "metallicFactor": 0,
        "roughnessFactor": 0.5,
        "baseColorTexture": {
          "index": 3,
          "texCoord": 0
        }
      },
      "emissiveFactor": [
        0,
        0,
        0
      ],
      "alphaMode": "OPAQUE",
      "doubleSided": false
    },
    {
      "name": "",
      "pbrMetallicRoughness": {
        "baseColorFactor": [
          0.29411764705882354,
          0.37254901960784315,
          0.5803921568627451,
          1
        ],
        "metallicFactor": 0,
        "roughnessFactor": 0.5,
        "baseColorTexture": {
          "index": 4,
          "texCoord": 0
        }
      },
      "emissiveFactor": [
        0,
        0,
        0
      ],
      "alphaMode": "OPAQUE",
      "doubleSided": false
    },
    {
      "name": "",
      "pbrMetallicRoughness": {
        "baseColorFactor": [
          0.9176470588235294,
          0.043137254901960784,
          0.043137254901960784,
          1
        ],
        "metallicFactor": 0,
        "roughnessFactor": 0.5,
        "baseColorTexture": {
          "index": 5,
          "texCoord": 0
        }
      },
      "emissiveFactor": [
        0,
        0,
        0
      ],
      "alphaMode": "OPAQUE",
      "doubleSided": false
    }
  ],
  "textures": [
    {
      "sampler": 0,
      "name": "base.jpg",
      "source": 0
    },
    {
      "sampler": 1,
      "name": "base.jpg",
      "source": 1
    },
    {
      "sampler": 2,
      "name": "base.jpg",
      "source": 2
    },
    {
      "sampler": 3,
      "name": "base.jpg",
      "source": 3
    },
    {
      "sampler": 4,
      "name": "base.jpg",
      "source": 4
    },
    {
      "sampler": 5,
      "name": "base.jpg",
      "source": 5
    }
  ],
  "samplers": [
    {
      "magFilter": 9729,
      "minFilter": 9987,
      "wrapS": 33071,
      "wrapT": 33071
    },
    {
      "magFilter": 9729,
      "minFilter": 9987,
      "wrapS": 33071,
      "wrapT": 33071
    },
    {
      "magFilter": 9729,
      "minFilter": 9987,
      "wrapS": 33071,
      "wrapT": 33071
    },
    {
      "magFilter": 9729,
      "minFilter": 9987,
      "wrapS": 33071,
      "wrapT": 33071
    },
    {
      "magFilter": 9729,
      "minFilter": 9987,
      "wrapS": 33071,
      "wrapT": 33071
    },
    {
      "magFilter": 9729,
      "minFilter": 9987,
      "wrapS": 33071,
      "wrapT": 33071
    }
  ],
  "images": [
    {
      "uri": "data:image/jpeg;base64,",
      "mimeType": "image/jpeg",
      "name": "base.jpg"
    },
    {
      "uri": "data:image/jpeg;base64,",
      "mimeType": "image/jpeg",
      "name": "base.jpg"
    },
    {
      "uri": "data:image/jpeg;base64,",
      "mimeType": "image/jpeg",
      "name": "base.jpg"
    },
    {
      "uri": "data:image/jpeg;base64,",
      "mimeType": "image/jpeg",
      "name": "base.jpg"
    },
    {
      "uri": "data:image/jpeg;base64,",
      "mimeType": "image/jpeg",
      "name": "base.jpg"
    },
    {
      "uri": "data:image/jpeg;base64,",
      "mimeType": "image/jpeg",
      "name": "base.jpg"
    }
  ]
}